<?xml version="1.0" encoding="UTF-8"?>
<svg version="1.1" xmlns="http://www.w3.org/2000/svg" width="32" height="32">
<path d="M0 0 C10.56 0 21.12 0 32 0 C32 10.56 32 21.12 32 32 C21.44 32 10.88 32 0 32 C0 21.44 0 10.88 0 0 Z " fill="#FBFBFB" transform="translate(0,0)"/>
<path d="M0 0 C4.81721665 2.36316288 7.60160527 5.20321055 10 10 C10.66559441 15.24155595 10.29817673 18.97966411 7.39453125 23.453125 C4.76769152 26.36693041 1.74720863 27.93137765 -2 29 C-7.42969958 29 -10.85186541 27.47285687 -15 24 C-16.375 21.25 -16.375 21.25 -17 19 C-16.34 18.34 -15.68 17.68 -15 17 C-14.34 18.32 -13.68 19.64 -13 21 C-12.01 21 -11.02 21 -10 21 C-9.34 21.33 -8.68 21.66 -8 22 C-2.39296787 22.21377721 -2.39296787 22.21377721 3 21 C3.80563638 18.89415562 3.80563638 18.89415562 4.1875 16.4375 C4.34605469 15.61121094 4.50460938 14.78492188 4.66796875 13.93359375 C4.83232422 12.97646484 4.83232422 12.97646484 5 12 C5.33 12 5.66 12 6 12 C6 14.31 6 16.62 6 19 C6.33 18.67 6.66 18.34 7 18 C6.8981629 16.08575543 6.8981629 16.08575543 6.5625 13.9375 C6.376875 12.638125 6.19125 11.33875 6 10 C5.01 10.495 5.01 10.495 4 11 C2.68 9.68 1.36 8.36 0 7 C-0.4125 7.515625 -0.825 8.03125 -1.25 8.5625 C-3 10 -3 10 -4.9375 9.8125 C-7.01017627 8.99599117 -9.00747926 7.99626037 -11 7 C-11.66 10.63 -12.32 14.26 -13 18 C-13.33 18 -13.66 18 -14 18 C-14.33 16.35 -14.66 14.7 -15 13 C-15.66 14.65 -16.32 16.3 -17 18 C-17.33 18 -17.66 18 -18 18 C-18.37695208 13.28809898 -18.46314703 9.92629407 -16.3125 5.625 C-11.52323544 0.18853753 -7.08419835 -1.11394638 0 0 Z " fill="#949493" transform="translate(20,2)"/>
<path d="M0 0 C0.66 1.32 1.32 2.64 2 4 C2.66 2.68 3.32 1.36 4 0 C4.33 0 4.66 0 5 0 C5 1.98 5 3.96 5 6 C5.66 6 6.32 6 7 6 C6.67 7.32 6.34 8.64 6 10 C5.01 9.01 4.02 8.02 3 7 C3.68732957 9.74931827 4.35560222 11.53418821 6.69140625 13.22265625 C8.43116325 14.20324656 10.2137611 15.10688055 12 16 C12 16.66 12 17.32 12 18 C7.71 18 3.42 18 -1 18 C-1.02684312 15.18743719 -1.04676188 12.37512759 -1.0625 9.5625 C-1.07087891 8.76005859 -1.07925781 7.95761719 -1.08789062 7.13085938 C-1.0965143 5.08704779 -1.0522815 3.04316098 -1 1 C-0.67 0.67 -0.34 0.34 0 0 Z " fill="#F1F1F1" transform="translate(1,14)"/>
<path d="M0 0 C0 0.33 0 0.66 0 1 C-1.134375 1.12375 -2.26875 1.2475 -3.4375 1.375 C-5.2009375 1.684375 -5.2009375 1.684375 -7 2 C-7.33 2.66 -7.66 3.32 -8 4 C-7.01 4.66 -6.02 5.32 -5 6 C-5.66 6.66 -6.32 7.32 -7 8 C-7.99 7.67 -8.98 7.34 -10 7 C-10.66 10.63 -11.32 14.26 -12 18 C-12.33 18 -12.66 18 -13 18 C-13.33 16.35 -13.66 14.7 -14 13 C-14.66 14.65 -15.32 16.3 -16 18 C-16.33 18 -16.66 18 -17 18 C-17.37695208 13.28809898 -17.46314703 9.92629407 -15.3125 5.625 C-10.48202345 0.14175635 -7.01374611 -0.35663116 0 0 Z " fill="#979797" transform="translate(19,2)"/>
<path d="M0 0 C1.60517097 0.08733576 3.20921662 0.19552224 4.8125 0.3125 C6.15248047 0.39951172 6.15248047 0.39951172 7.51953125 0.48828125 C10.30604 1.06313581 11.24135754 1.8206856 13 4 C12.01 4.33 11.02 4.66 10 5 C9.2884375 5.804375 9.2884375 5.804375 8.5625 6.625 C8.046875 7.07875 7.53125 7.5325 7 8 C4.8125 7.6875 4.8125 7.6875 3 7 C3 6.01 3 5.02 3 4 C2.01 3.34 1.02 2.68 0 2 C0 1.34 0 0.68 0 0 Z " fill="#C7C8C7" transform="translate(10,4)"/>
<path d="M0 0 C0.33 0 0.66 0 1 0 C0.93976735 1.60520004 0.85091401 3.20934327 0.75 4.8125 C0.68039063 6.15248047 0.68039063 6.15248047 0.609375 7.51953125 C0 10 0 10 -1.82421875 11.7734375 C-4.87341319 13.49237297 -7.52773814 13.8106039 -11 14 C-11.99 13.34 -12.98 12.68 -14 12 C-11.03 12 -8.06 12 -5 12 C-4.67 11.01 -4.34 10.02 -4 9 C-3.34 9 -2.68 9 -2 9 C-1.34 6.03 -0.68 3.06 0 0 Z " fill="#BBBCBB" transform="translate(25,14)"/>
<path d="M0 0 C2.12038635 2.61514317 4.13091744 5.19637616 6 8 C2 8 2 8 0.1875 6.25 C-1 4 -1 4 -0.6875 1.75 C-0.460625 1.1725 -0.23375 0.595 0 0 Z " fill="#868584" transform="translate(4,19)"/>
<path d="M0 0 C0.495 0.309375 0.99 0.61875 1.5 0.9375 C4.97986781 2.41644382 8.24028509 2.62402851 12 3 C12 3.33 12 3.66 12 4 C9.03 4 6.06 4 3 4 C3 4.66 3 5.32 3 6 C3.66 6.33 4.32 6.66 5 7 C3.68 7 2.36 7 1 7 C0.67 4.69 0.34 2.38 0 0 Z " fill="#9F9F9E" transform="translate(8,22)"/>
<path d="M0 0 C0 0.66 0 1.32 0 2 C-3.3 2 -6.6 2 -10 2 C-10 1.34 -10 0.68 -10 0 C-3.375 -1.125 -3.375 -1.125 0 0 Z " fill="#9F9E9E" transform="translate(22,3)"/>
<path d="M0 0 C0.99 0 1.98 0 3 0 C2.6875 2.875 2.6875 2.875 2 6 C1.01 6.66 0.02 7.32 -1 8 C-1 4.88742431 -0.82638376 2.89234315 0 0 Z " fill="#838383" transform="translate(27,17)"/>
<path d="M0 0 C0 0.33 0 0.66 0 1 C-1.11375 1.103125 -2.2275 1.20625 -3.375 1.3125 C-4.57125 1.539375 -5.7675 1.76625 -7 2 C-7.99 3.485 -7.99 3.485 -9 5 C-9.66 5 -10.32 5 -11 5 C-10.625 3.0625 -10.625 3.0625 -10 1 C-6.78548731 -0.60725635 -3.56387464 -0.05748185 0 0 Z " fill="#797978" transform="translate(19,2)"/>
<path d="M0 0 C0.66 0 1.32 0 2 0 C1.67 1.65 1.34 3.3 1 5 C-0.32 5.33 -1.64 5.66 -3 6 C-1.125 1.125 -1.125 1.125 0 0 Z " fill="#8B8C8B" transform="translate(6,5)"/>
</svg>
